<svg width="30" height="30" viewBox="0 0 30 30" fill="none" xmlns="http://www.w3.org/2000/svg">
<g clip-path="url(#clip0_19_96)">
<path d="M15 20C16.3261 20 17.5979 19.4732 18.5355 18.5355C19.4732 17.5979 20 16.3261 20 15C20 13.6739 19.4732 12.4021 18.5355 11.4645C17.5979 10.5268 16.3261 10 15 10C13.6739 10 12.4021 10.5268 11.4645 11.4645C10.5268 12.4021 10 13.6739 10 15C10 16.3261 10.5268 17.5979 11.4645 18.5355C12.4021 19.4732 13.6739 20 15 20ZM13.75 5.075V1.25C13.75 0.918479 13.8817 0.600537 14.1161 0.366117C14.3505 0.131696 14.6685 0 15 0C15.3315 0 15.6495 0.131696 15.8839 0.366117C16.1183 0.600537 16.25 0.918479 16.25 1.25V5.075C18.4534 5.35335 20.5015 6.3569 22.0717 7.92752C23.6418 9.49815 24.6448 11.5466 24.9225 13.75H28.75C29.0815 13.75 29.3995 13.8817 29.6339 14.1161C29.8683 14.3505 30 14.6685 30 15C30 15.3315 29.8683 15.6495 29.6339 15.8839C29.3995 16.1183 29.0815 16.25 28.75 16.25H24.9225C24.6447 18.4538 23.6413 20.5025 22.0707 22.0732C20.5 23.6438 18.4513 24.6472 16.2475 24.925L16.25 25V28.75C16.25 29.0815 16.1183 29.3995 15.8839 29.6339C15.6495 29.8683 15.3315 30 15 30C14.6685 30 14.3505 29.8683 14.1161 29.6339C13.8817 29.3995 13.75 29.0815 13.75 28.75V24.925C11.5462 24.6472 9.49749 23.6438 7.92682 22.0732C6.35616 20.5025 5.35284 18.4538 5.075 16.25C5.05001 16.2507 5.02499 16.2507 5 16.25H1.25C0.918479 16.25 0.600537 16.1183 0.366117 15.8839C0.131696 15.6495 0 15.3315 0 15C0 14.6685 0.131696 14.3505 0.366117 14.1161C0.600537 13.8817 0.918479 13.75 1.25 13.75H5C5.02499 13.7492 5.05001 13.7492 5.075 13.75C5.35387 11.5471 6.35764 9.49954 7.92822 7.92987C9.4988 6.36019 11.5469 5.3576 13.75 5.08V5.075ZM7.5 15C7.5 16.9891 8.29018 18.8968 9.6967 20.3033C11.1032 21.7098 13.0109 22.5 15 22.5C16.9891 22.5 18.8968 21.7098 20.3033 20.3033C21.7098 18.8968 22.5 16.9891 22.5 15C22.5 13.0109 21.7098 11.1032 20.3033 9.6967C18.8968 8.29018 16.9891 7.5 15 7.5C13.0109 7.5 11.1032 8.29018 9.6967 9.6967C8.29018 11.1032 7.5 13.0109 7.5 15Z" fill="#F8F8F8"/>
</g>
<defs>
<clipPath id="clip0_19_96">
<rect width="30" height="30" fill="white"/>
</clipPath>
</defs>
</svg>
