<svg width="28" height="27" viewBox="0 0 28 27" fill="none" xmlns="http://www.w3.org/2000/svg">
<path d="M22.8667 23.625L15.5167 16.5375C14.9333 16.9875 14.2625 17.3438 13.5042 17.6062C12.7458 17.8687 11.9389 18 11.0833 18C8.96389 18 7.17033 17.292 5.70267 15.876C4.235 14.46 3.50078 12.7305 3.5 10.6875C3.5 8.64375 4.23422 6.91425 5.70267 5.499C7.17111 4.08375 8.96467 3.37575 11.0833 3.375C13.2028 3.375 14.9963 4.083 16.464 5.499C17.9317 6.915 18.6659 8.6445 18.6667 10.6875C18.6667 11.5125 18.5306 12.2906 18.2583 13.0219C17.9861 13.7531 17.6167 14.4 17.15 14.9625L24.5 22.05L22.8667 23.625ZM11.0833 15.75C12.5417 15.75 13.7814 15.2576 14.8027 14.2729C15.8239 13.2881 16.3341 12.093 16.3333 10.6875C16.3333 9.28125 15.8227 8.08575 14.8015 7.101C13.7803 6.11625 12.5409 5.62425 11.0833 5.625C9.625 5.625 8.38522 6.11738 7.364 7.10213C6.34278 8.08687 5.83256 9.282 5.83333 10.6875C5.83333 12.0938 6.34394 13.2892 7.36517 14.274C8.38639 15.2587 9.62578 15.7507 11.0833 15.75Z" fill="white"/>
</svg>
