<svg width="31" height="31" viewBox="0 0 31 31" fill="none" xmlns="http://www.w3.org/2000/svg">
<path d="M10.0752 2.5835H20.9252C25.0585 2.5835 28.4168 5.94183 28.4168 10.0752V20.9252C28.4168 22.9121 27.6275 24.8176 26.2226 26.2226C24.8176 27.6275 22.9121 28.4168 20.9252 28.4168H10.0752C5.94183 28.4168 2.5835 25.0585 2.5835 20.9252V10.0752C2.5835 8.08825 3.37279 6.18271 4.77775 4.77775C6.18271 3.37279 8.08825 2.5835 10.0752 2.5835ZM9.81683 5.16683C8.58357 5.16683 7.40083 5.65674 6.52878 6.52878C5.65674 7.40083 5.16683 8.58357 5.16683 9.81683V21.1835C5.16683 23.7539 7.24641 25.8335 9.81683 25.8335H21.1835C22.4168 25.8335 23.5995 25.3436 24.4715 24.4715C25.3436 23.5995 25.8335 22.4168 25.8335 21.1835V9.81683C25.8335 7.24641 23.7539 5.16683 21.1835 5.16683H9.81683ZM22.2814 7.10433C22.7096 7.10433 23.1203 7.27444 23.4231 7.57723C23.7259 7.88002 23.896 8.2907 23.896 8.71891C23.896 9.14713 23.7259 9.5578 23.4231 9.8606C23.1203 10.1634 22.7096 10.3335 22.2814 10.3335C21.8532 10.3335 21.4425 10.1634 21.1397 9.8606C20.8369 9.5578 20.6668 9.14713 20.6668 8.71891C20.6668 8.2907 20.8369 7.88002 21.1397 7.57723C21.4425 7.27444 21.8532 7.10433 22.2814 7.10433ZM15.5002 9.04183C17.213 9.04183 18.8557 9.72226 20.0669 10.9334C21.2781 12.1446 21.9585 13.7873 21.9585 15.5002C21.9585 17.213 21.2781 18.8557 20.0669 20.0669C18.8557 21.2781 17.213 21.9585 15.5002 21.9585C13.7873 21.9585 12.1446 21.2781 10.9334 20.0669C9.72226 18.8557 9.04183 17.213 9.04183 15.5002C9.04183 13.7873 9.72226 12.1446 10.9334 10.9334C12.1446 9.72226 13.7873 9.04183 15.5002 9.04183ZM15.5002 11.6252C14.4724 11.6252 13.4868 12.0334 12.7601 12.7601C12.0334 13.4868 11.6252 14.4724 11.6252 15.5002C11.6252 16.5279 12.0334 17.5135 12.7601 18.2402C13.4868 18.9669 14.4724 19.3752 15.5002 19.3752C16.5279 19.3752 17.5135 18.9669 18.2402 18.2402C18.9669 17.5135 19.3752 16.5279 19.3752 15.5002C19.3752 14.4724 18.9669 13.4868 18.2402 12.7601C17.5135 12.0334 16.5279 11.6252 15.5002 11.6252Z" fill="white"/>
</svg>
