<svg width="31" height="31" viewBox="0 0 31 31" fill="none" xmlns="http://www.w3.org/2000/svg">
<path d="M10.0747 2.5835H20.9247C25.058 2.5835 28.4163 5.94183 28.4163 10.0752V20.9252C28.4163 22.9121 27.627 24.8176 26.2221 26.2226C24.8171 27.6275 22.9116 28.4168 20.9247 28.4168H10.0747C5.94134 28.4168 2.58301 25.0585 2.58301 20.9252V10.0752C2.58301 8.08825 3.37231 6.18271 4.77727 4.77775C6.18223 3.37279 8.08776 2.5835 10.0747 2.5835ZM9.81634 5.16683C8.58308 5.16683 7.40034 5.65674 6.5283 6.52878C5.65625 7.40083 5.16634 8.58357 5.16634 9.81683V21.1835C5.16634 23.7539 7.24592 25.8335 9.81634 25.8335H21.183C22.4163 25.8335 23.599 25.3436 24.4711 24.4715C25.3431 23.5995 25.833 22.4168 25.833 21.1835V9.81683C25.833 7.24641 23.7534 5.16683 21.183 5.16683H9.81634ZM22.2809 7.10433C22.7091 7.10433 23.1198 7.27444 23.4226 7.57723C23.7254 7.88002 23.8955 8.2907 23.8955 8.71891C23.8955 9.14713 23.7254 9.5578 23.4226 9.8606C23.1198 10.1634 22.7091 10.3335 22.2809 10.3335C21.8527 10.3335 21.442 10.1634 21.1392 9.8606C20.8364 9.5578 20.6663 9.14713 20.6663 8.71891C20.6663 8.2907 20.8364 7.88002 21.1392 7.57723C21.442 7.27444 21.8527 7.10433 22.2809 7.10433ZM15.4997 9.04183C17.2125 9.04183 18.8552 9.72226 20.0664 10.9334C21.2776 12.1446 21.958 13.7873 21.958 15.5002C21.958 17.213 21.2776 18.8557 20.0664 20.0669C18.8552 21.2781 17.2125 21.9585 15.4997 21.9585C13.7868 21.9585 12.1441 21.2781 10.9329 20.0669C9.72177 18.8557 9.04134 17.213 9.04134 15.5002C9.04134 13.7873 9.72177 12.1446 10.9329 10.9334C12.1441 9.72226 13.7868 9.04183 15.4997 9.04183ZM15.4997 11.6252C14.472 11.6252 13.4863 12.0334 12.7596 12.7601C12.0329 13.4868 11.6247 14.4724 11.6247 15.5002C11.6247 16.5279 12.0329 17.5135 12.7596 18.2402C13.4863 18.9669 14.472 19.3752 15.4997 19.3752C16.5274 19.3752 17.513 18.9669 18.2397 18.2402C18.9664 17.5135 19.3747 16.5279 19.3747 15.5002C19.3747 14.4724 18.9664 13.4868 18.2397 12.7601C17.513 12.0334 16.5274 11.6252 15.4997 11.6252Z" fill="white"/>
</svg>
