<svg width="31" height="31" viewBox="0 0 31 31" fill="none" xmlns="http://www.w3.org/2000/svg">
<path d="M10.0749 2.5835H20.9249C25.0583 2.5835 28.4166 5.94183 28.4166 10.0752V20.9252C28.4166 22.9121 27.6273 24.8176 26.2223 26.2226C24.8174 27.6275 22.9118 28.4168 20.9249 28.4168H10.0749C5.94159 28.4168 2.58325 25.0585 2.58325 20.9252V10.0752C2.58325 8.08825 3.37255 6.18271 4.77751 4.77775C6.18247 3.37279 8.08801 2.5835 10.0749 2.5835ZM9.81659 5.16683C8.58333 5.16683 7.40058 5.65674 6.52854 6.52878C5.65649 7.40083 5.16659 8.58357 5.16659 9.81683V21.1835C5.16659 23.7539 7.24617 25.8335 9.81659 25.8335H21.1833C22.4165 25.8335 23.5993 25.3436 24.4713 24.4715C25.3433 23.5995 25.8333 22.4168 25.8333 21.1835V9.81683C25.8333 7.24641 23.7537 5.16683 21.1833 5.16683H9.81659ZM22.2812 7.10433C22.7094 7.10433 23.1201 7.27444 23.4229 7.57723C23.7256 7.88002 23.8958 8.2907 23.8958 8.71891C23.8958 9.14713 23.7256 9.5578 23.4229 9.8606C23.1201 10.1634 22.7094 10.3335 22.2812 10.3335C21.853 10.3335 21.4423 10.1634 21.1395 9.8606C20.8367 9.5578 20.6666 9.14713 20.6666 8.71891C20.6666 8.2907 20.8367 7.88002 21.1395 7.57723C21.4423 7.27444 21.853 7.10433 22.2812 7.10433ZM15.4999 9.04183C17.2128 9.04183 18.8555 9.72226 20.0667 10.9334C21.2778 12.1446 21.9583 13.7873 21.9583 15.5002C21.9583 17.213 21.2778 18.8557 20.0667 20.0669C18.8555 21.2781 17.2128 21.9585 15.4999 21.9585C13.7871 21.9585 12.1444 21.2781 10.9332 20.0669C9.72202 18.8557 9.04159 17.213 9.04159 15.5002C9.04159 13.7873 9.72202 12.1446 10.9332 10.9334C12.1444 9.72226 13.7871 9.04183 15.4999 9.04183ZM15.4999 11.6252C14.4722 11.6252 13.4866 12.0334 12.7599 12.7601C12.0332 13.4868 11.6249 14.4724 11.6249 15.5002C11.6249 16.5279 12.0332 17.5135 12.7599 18.2402C13.4866 18.9669 14.4722 19.3752 15.4999 19.3752C16.5276 19.3752 17.5133 18.9669 18.24 18.2402C18.9667 17.5135 19.3749 16.5279 19.3749 15.5002C19.3749 14.4724 18.9667 13.4868 18.24 12.7601C17.5133 12.0334 16.5276 11.6252 15.4999 11.6252Z" fill="white"/>
</svg>
