<svg width="31" height="22" viewBox="0 0 31 22" fill="none" xmlns="http://www.w3.org/2000/svg">
<path d="M10.0749 2.31299H20.9249C25.0583 2.31299 28.4166 4.62651 28.4166 7.47391V14.9484C28.4166 16.3171 27.6273 17.6298 26.2223 18.5977C24.8174 19.5655 22.9118 20.1093 20.9249 20.1093H10.0749C5.94159 20.1093 2.58325 17.7958 2.58325 14.9484V7.47391C2.58325 6.10515 3.37255 4.79245 4.77751 3.82459C6.18247 2.85673 8.08801 2.31299 10.0749 2.31299ZM9.81659 4.09262C8.58333 4.09262 7.40058 4.43011 6.52854 5.03085C5.65649 5.63159 5.16659 6.44637 5.16659 7.29595V15.1263C5.16659 16.8971 7.24617 18.3297 9.81659 18.3297H21.1833C22.4165 18.3297 23.5993 17.9922 24.4713 17.3914C25.3433 16.7907 25.8333 15.9759 25.8333 15.1263V7.29595C25.8333 5.52522 23.7537 4.09262 21.1833 4.09262H9.81659ZM22.2812 5.42734C22.7094 5.42734 23.1201 5.54453 23.4229 5.75312C23.7256 5.96171 23.8958 6.24462 23.8958 6.53961C23.8958 6.8346 23.7256 7.11751 23.4229 7.3261C23.1201 7.53469 22.7094 7.65188 22.2812 7.65188C21.853 7.65188 21.4423 7.53469 21.1395 7.3261C20.8367 7.11751 20.6666 6.8346 20.6666 6.53961C20.6666 6.24462 20.8367 5.96171 21.1395 5.75312C21.4423 5.54453 21.853 5.42734 22.2812 5.42734ZM15.4999 6.76206C17.2128 6.76206 18.8555 7.2308 20.0667 8.06517C21.2778 8.89953 21.9583 10.0312 21.9583 11.2111C21.9583 12.3911 21.2778 13.5227 20.0667 14.3571C18.8555 15.1915 17.2128 15.6602 15.4999 15.6602C13.7871 15.6602 12.1444 15.1915 10.9332 14.3571C9.72202 13.5227 9.04159 12.3911 9.04159 11.2111C9.04159 10.0312 9.72202 8.89953 10.9332 8.06517C12.1444 7.2308 13.7871 6.76206 15.4999 6.76206ZM15.4999 8.54169C14.4722 8.54169 13.4866 8.82294 12.7599 9.32355C12.0332 9.82417 11.6249 10.5032 11.6249 11.2111C11.6249 11.9191 12.0332 12.5981 12.7599 13.0987C13.4866 13.5993 14.4722 13.8806 15.4999 13.8806C16.5276 13.8806 17.5133 13.5993 18.24 13.0987C18.9667 12.5981 19.3749 11.9191 19.3749 11.2111C19.3749 10.5032 18.9667 9.82417 18.24 9.32355C17.5133 8.82294 16.5276 8.54169 15.4999 8.54169Z" fill="white"/>
</svg>
