<svg width="31" height="31" viewBox="0 0 31 31" fill="none" xmlns="http://www.w3.org/2000/svg">
<path d="M10.0749 2.58334H20.9249C25.0583 2.58334 28.4166 5.94167 28.4166 10.075V20.925C28.4166 22.9119 27.6273 24.8175 26.2223 26.2224C24.8174 27.6274 22.9118 28.4167 20.9249 28.4167H10.0749C5.94159 28.4167 2.58325 25.0583 2.58325 20.925V10.075C2.58325 8.08809 3.37255 6.18255 4.77751 4.77759C6.18247 3.37263 8.08801 2.58334 10.0749 2.58334ZM9.81659 5.16667C8.58333 5.16667 7.40058 5.65658 6.52854 6.52862C5.65649 7.40067 5.16659 8.58341 5.16659 9.81667V21.1833C5.16659 23.7538 7.24617 25.8333 9.81659 25.8333H21.1833C22.4165 25.8333 23.5993 25.3434 24.4713 24.4714C25.3433 23.5993 25.8333 22.4166 25.8333 21.1833V9.81667C25.8333 7.24625 23.7537 5.16667 21.1833 5.16667H9.81659ZM22.2812 7.10417C22.7094 7.10417 23.1201 7.27428 23.4229 7.57707C23.7256 7.87986 23.8958 8.29054 23.8958 8.71875C23.8958 9.14697 23.7256 9.55764 23.4229 9.86044C23.1201 10.1632 22.7094 10.3333 22.2812 10.3333C21.853 10.3333 21.4423 10.1632 21.1395 9.86044C20.8367 9.55764 20.6666 9.14697 20.6666 8.71875C20.6666 8.29054 20.8367 7.87986 21.1395 7.57707C21.4423 7.27428 21.853 7.10417 22.2812 7.10417ZM15.4999 9.04167C17.2128 9.04167 18.8555 9.7221 20.0667 10.9333C21.2778 12.1444 21.9583 13.7871 21.9583 15.5C21.9583 17.2129 21.2778 18.8556 20.0667 20.0667C18.8555 21.2779 17.2128 21.9583 15.4999 21.9583C13.7871 21.9583 12.1444 21.2779 10.9332 20.0667C9.72202 18.8556 9.04159 17.2129 9.04159 15.5C9.04159 13.7871 9.72202 12.1444 10.9332 10.9333C12.1444 9.7221 13.7871 9.04167 15.4999 9.04167ZM15.4999 11.625C14.4722 11.625 13.4866 12.0333 12.7599 12.76C12.0332 13.4867 11.6249 14.4723 11.6249 15.5C11.6249 16.5277 12.0332 17.5133 12.7599 18.24C13.4866 18.9667 14.4722 19.375 15.4999 19.375C16.5276 19.375 17.5133 18.9667 18.24 18.24C18.9667 17.5133 19.3749 16.5277 19.3749 15.5C19.3749 14.4723 18.9667 13.4867 18.24 12.76C17.5133 12.0333 16.5276 11.625 15.4999 11.625Z" fill="white"/>
</svg>
