<svg width="24" height="26" viewBox="0 0 24 26" fill="none" xmlns="http://www.w3.org/2000/svg">
<path d="M12 3.24998C10.1435 3.24998 8.36301 4.04894 7.05025 5.47109C5.7375 6.89324 5 8.82209 5 10.8333C5 13.9338 6.782 16.9249 8.738 19.2421C9.73868 20.422 10.8299 21.5078 12 22.4878C13.1701 21.5085 14.2613 20.4235 15.262 19.2443C17.218 16.9249 19 13.9349 19 10.8333C19 8.82209 18.2625 6.89324 16.9497 5.47109C15.637 4.04894 13.8565 3.24998 12 3.24998ZM12 25.1485L11.433 24.726L11.43 24.7238L11.424 24.7184L11.404 24.7032L11.329 24.6458C10.9149 24.3197 10.5101 23.9801 10.115 23.6275C9.10237 22.7263 8.14906 21.7497 7.262 20.7046C5.218 18.2823 3 14.7734 3 10.8333C3 8.24745 3.94821 5.7675 5.63604 3.93902C7.32387 2.11054 9.61305 1.08331 12 1.08331C14.3869 1.08331 16.6761 2.11054 18.364 3.93902C20.0518 5.7675 21 8.24745 21 10.8333C21 14.7734 18.782 18.2834 16.738 20.7046C15.5799 22.0693 14.3093 23.3167 12.942 24.4313C12.8281 24.5235 12.7131 24.6142 12.597 24.7032L12.576 24.7184L12.57 24.7238L12.568 24.7249L12 25.1474V25.1485ZM12 8.66665C11.4696 8.66665 10.9609 8.89492 10.5858 9.30125C10.2107 9.70758 10 10.2587 10 10.8333C10 11.4079 10.2107 11.959 10.5858 12.3654C10.9609 12.7717 11.4696 13 12 13C12.5304 13 13.0391 12.7717 13.4142 12.3654C13.7893 11.959 14 11.4079 14 10.8333C14 10.2587 13.7893 9.70758 13.4142 9.30125C13.0391 8.89492 12.5304 8.66665 12 8.66665ZM8 10.8333C8 9.68404 8.42143 8.58184 9.17157 7.76918C9.92172 6.95653 10.9391 6.49998 12 6.49998C13.0609 6.49998 14.0783 6.95653 14.8284 7.76918C15.5786 8.58184 16 9.68404 16 10.8333C16 11.9826 15.5786 13.0848 14.8284 13.8974C14.0783 14.7101 13.0609 15.1666 12 15.1666C10.9391 15.1666 9.92172 14.7101 9.17157 13.8974C8.42143 13.0848 8 11.9826 8 10.8333Z" fill="white"/>
</svg>
