<svg width="290" height="317" viewBox="0 0 290 317" fill="none" xmlns="http://www.w3.org/2000/svg">
<path d="M253.75 223.881C235.625 186.238 217.5 192.181 197.562 190.2C199.375 196.144 199.375 202.088 199.375 210.013C228.375 217.938 235.625 255.581 235.625 277.375V297.188H199.375V277.375H217.5C217.5 277.375 217.5 227.844 190.312 227.844C163.125 227.844 163.125 275.394 163.125 277.375H181.25V297.188H145V277.375C145 255.581 152.25 215.956 181.25 210.013C181.25 198.125 179.438 188.219 177.625 184.256C174 182.275 170.375 178.312 170.375 172.369C170.375 160.481 184.875 164.444 195.75 142.65C195.75 142.65 212.062 97.0813 206.625 57.4563H188.5C188.5 53.4938 190.312 51.5125 190.312 47.55C190.312 43.5875 190.312 41.6063 188.5 37.6437H203C197.562 17.8312 179.438 0 145 0C110.562 0 92.4375 17.8312 85.1875 39.625H99.6875C99.6875 43.5875 97.875 45.5687 97.875 49.5312C97.875 53.4938 97.875 55.475 99.6875 59.4375H81.5625C77.9375 99.0625 92.4375 144.631 92.4375 144.631C103.312 164.444 117.812 160.481 117.812 174.35C117.812 184.256 108.75 188.219 97.875 190.2C94.25 194.163 90.625 202.087 90.625 217.938V241.712C101.5 245.675 108.75 257.562 108.75 269.45C108.75 283.319 96.0625 297.188 81.5625 297.188C67.0625 297.188 54.375 283.319 54.375 267.469C54.375 253.6 61.625 243.694 72.5 239.731V215.956C72.5 206.05 74.3125 198.125 76.125 190.2C63.4375 192.181 48.9375 198.125 36.25 223.881C25.375 245.675 19.9375 317 19.9375 317H268.25C270.062 317 264.625 245.675 253.75 223.881ZM117.812 49.5312C117.812 33.6813 130.5 19.8125 145 19.8125C159.5 19.8125 172.188 33.6813 172.188 49.5312C172.188 65.3812 159.5 79.25 145 79.25C130.5 79.25 117.812 65.3812 117.812 49.5312Z" fill="#1D5D9B" fill-opacity="0.59"/>
<path d="M90.625 267.469C90.625 270.096 89.6702 272.616 87.9707 274.474C86.2711 276.331 83.966 277.375 81.5625 277.375C79.159 277.375 76.8539 276.331 75.1543 274.474C73.4548 272.616 72.5 270.096 72.5 267.469C72.5 264.841 73.4548 262.322 75.1543 260.464C76.8539 258.606 79.159 257.562 81.5625 257.562C83.966 257.562 86.2711 258.606 87.9707 260.464C89.6702 262.322 90.625 264.841 90.625 267.469Z" fill="#1D5D9B" fill-opacity="0.59"/>
</svg>
