<svg width="33" height="137" viewBox="0 0 33 137" fill="none" xmlns="http://www.w3.org/2000/svg">
<g filter="url(#filter0_d_11_42)">
<path d="M6.59094 116.215C6.41276 116.805 6.27257 117.501 6.17836 118.263C6.08416 119.025 6.03779 119.839 6.04189 120.657C6.046 121.476 6.1005 122.283 6.2023 123.033C6.30409 123.784 6.45118 124.462 6.63516 125.029C6.81915 125.597 7.03642 126.043 7.27459 126.341C7.51275 126.64 7.76713 126.786 8.02322 126.77C8.2793 126.754 8.53207 126.577 8.76709 126.249C9.00211 125.922 9.21478 125.449 9.39296 124.859L26.1801 69.2471C26.5267 68.0999 26.7233 66.5734 26.7294 64.981C26.7355 63.3887 26.5507 61.8512 26.2129 60.6843L9.85554 4.11328C9.68314 3.50025 9.47423 3.00322 9.24095 2.65107C9.00768 2.29891 8.75469 2.09866 8.49668 2.06193C8.23866 2.02519 7.98077 2.15273 7.73798 2.4371C7.49519 2.72147 7.27234 3.15702 7.08237 3.71846C6.8924 4.27989 6.73911 4.95602 6.63139 5.70757C6.52368 6.45911 6.46368 7.27109 6.4549 8.09635C6.44611 8.9216 6.48871 9.74368 6.58021 10.5148C6.67172 11.286 6.81031 11.9908 6.98794 12.5884L22.0982 64.8479L6.59094 116.215Z" fill="#75C2F6"/>
<path d="M10.3504 125.17L10.3505 125.17L27.1375 69.5584C27.1375 69.5583 27.1375 69.5582 27.1376 69.5581C27.519 68.2958 27.7226 66.6693 27.729 65.0098C27.7353 63.3502 27.5442 61.7124 27.1725 60.4284C27.1725 60.4283 27.1725 60.4282 27.1725 60.4281L10.8173 3.86457C10.8169 3.86334 10.8166 3.86212 10.8162 3.8609C10.6284 3.19392 10.3839 2.58677 10.0699 2.11283C9.77101 1.66163 9.29748 1.16896 8.61322 1.07155C7.88384 0.967704 7.32412 1.36303 6.97123 1.77636C6.61593 2.19251 6.34409 2.75786 6.13474 3.37659C5.92105 4.00814 5.75593 4.74552 5.64185 5.54145C5.52745 6.33959 5.46457 7.19537 5.45536 8.06081C5.44614 8.9263 5.49071 9.79159 5.58763 10.6083C5.68416 11.4218 5.83223 12.1839 6.02932 12.8479C6.02967 12.8492 6.03003 12.8504 6.03039 12.8516L21.0559 64.8179L5.63348 115.904C5.43583 116.558 5.2858 117.311 5.18628 118.116C5.08656 118.923 5.038 119.779 5.04231 120.638C5.04662 121.496 5.10373 122.347 5.21185 123.144C5.31969 123.938 5.4781 124.678 5.68506 125.316L6.63516 125.029L5.68506 125.316C5.88794 125.942 6.15245 126.518 6.49939 126.953C6.84252 127.384 7.38767 127.813 8.10939 127.768C8.79545 127.726 9.27831 127.272 9.58418 126.846C9.90464 126.399 10.1557 125.815 10.3504 125.17Z" stroke="#75C2F6" stroke-width="2"/>
</g>
<defs>
<filter id="filter0_d_11_42" x="0.04245" y="0.053772" width="32.6863" height="136.718" filterUnits="userSpaceOnUse" color-interpolation-filters="sRGB">
<feFlood flood-opacity="0" result="BackgroundImageFix"/>
<feColorMatrix in="SourceAlpha" type="matrix" values="0 0 0 0 0 0 0 0 0 0 0 0 0 0 0 0 0 0 127 0" result="hardAlpha"/>
<feOffset dy="4"/>
<feGaussianBlur stdDeviation="2"/>
<feComposite in2="hardAlpha" operator="out"/>
<feColorMatrix type="matrix" values="0 0 0 0 0 0 0 0 0 0 0 0 0 0 0 0 0 0 0.25 0"/>
<feBlend mode="normal" in2="BackgroundImageFix" result="effect1_dropShadow_11_42"/>
<feBlend mode="normal" in="SourceGraphic" in2="effect1_dropShadow_11_42" result="shape"/>
</filter>
</defs>
</svg>
