<svg width="47" height="47" viewBox="0 0 47 47" fill="none" xmlns="http://www.w3.org/2000/svg">
<path opacity="0.4" d="M14.198 13.7084H32.8022V9.79169C32.8022 5.87502 31.3334 3.91669 26.9272 3.91669H20.073C15.6667 3.91669 14.198 5.87502 14.198 9.79169V13.7084Z" stroke="#4588C0" stroke-width="1.5" stroke-miterlimit="10" stroke-linecap="round" stroke-linejoin="round"/>
<path d="M31.3334 29.375V37.2083C31.3334 41.125 29.3751 43.0833 25.4584 43.0833H21.5417C17.6251 43.0833 15.6667 41.125 15.6667 37.2083V29.375H31.3334Z" stroke="#4588C0" stroke-width="1.5" stroke-miterlimit="10" stroke-linecap="round" stroke-linejoin="round"/>
<path d="M41.125 19.5833V29.375C41.125 33.2916 39.1667 35.25 35.25 35.25H31.3333V29.375H15.6667V35.25H11.75C7.83333 35.25 5.875 33.2916 5.875 29.375V19.5833C5.875 15.6666 7.83333 13.7083 11.75 13.7083H35.25C39.1667 13.7083 41.125 15.6666 41.125 19.5833Z" stroke="#4588C0" stroke-width="1.5" stroke-miterlimit="10" stroke-linecap="round" stroke-linejoin="round"/>
<path d="M33.2916 29.375H30.922H13.7083" stroke="#4588C0" stroke-width="1.5" stroke-miterlimit="10" stroke-linecap="round" stroke-linejoin="round"/>
<path opacity="0.4" d="M13.7083 21.5417H19.5833" stroke="#4588C0" stroke-width="1.5" stroke-miterlimit="10" stroke-linecap="round" stroke-linejoin="round"/>
</svg>
