<svg width="47" height="47" viewBox="0 0 47 47" fill="none" xmlns="http://www.w3.org/2000/svg">
<path d="M13.7083 23.5C5.875 23.5 5.875 27.0054 5.875 31.3333V33.2917C5.875 38.6967 5.875 43.0833 15.6667 43.0833H31.3333C39.1667 43.0833 41.125 38.6967 41.125 33.2917V31.3333C41.125 27.0054 41.125 23.5 33.2917 23.5C31.3333 23.5 30.785 23.9113 29.7667 24.675L27.7692 26.79C25.4583 29.2575 21.5417 29.2575 19.2113 26.79L17.2333 24.675C16.215 23.9113 15.6667 23.5 13.7083 23.5Z" stroke="#4588C0" stroke-width="1.5" stroke-miterlimit="10" stroke-linecap="round" stroke-linejoin="round"/>
<path opacity="0.4" d="M37.2084 23.5V11.75C37.2084 7.42207 37.2084 3.91666 29.3751 3.91666H17.6251C9.79175 3.91666 9.79175 7.42207 9.79175 11.75V23.5" stroke="#4588C0" stroke-width="1.5" stroke-miterlimit="10" stroke-linecap="round" stroke-linejoin="round"/>
</svg>
