<svg width="47" height="47" viewBox="0 0 47 47" fill="none" xmlns="http://www.w3.org/2000/svg">
<path d="M43.0247 35.8963C43.0247 36.6013 42.868 37.3259 42.5351 38.0309C42.2022 38.7359 41.7713 39.4017 41.2034 40.0284C40.2438 41.0859 39.1863 41.8496 37.9917 42.3392C36.8167 42.8288 35.5438 43.0834 34.173 43.0834C32.1755 43.0834 30.0409 42.6134 27.7888 41.6538C25.5367 40.6942 23.2847 39.4017 21.0522 37.7763C18.8001 36.1313 16.6655 34.31 14.6288 32.2929C12.6117 30.2563 10.7905 28.1217 9.16508 25.8892C7.55925 23.6567 6.26675 21.4242 5.32675 19.2113C4.38675 16.9788 3.91675 14.8442 3.91675 12.8075C3.91675 11.4759 4.15175 10.2029 4.62175 9.02794C5.09175 7.83335 5.83591 6.73669 6.87383 5.75752C8.12716 4.52377 9.498 3.91669 10.9472 3.91669C11.4955 3.91669 12.0438 4.03419 12.5334 4.26919C13.0426 4.50419 13.493 4.85669 13.8455 5.36585L18.3888 11.7696C18.7413 12.2592 18.9959 12.7096 19.1722 13.1404C19.3484 13.5517 19.4463 13.9629 19.4463 14.335C19.4463 14.805 19.3092 15.275 19.0351 15.7254C18.7805 16.1759 18.4084 16.6459 17.9384 17.1159L16.4501 18.6629C16.2347 18.8784 16.1367 19.1329 16.1367 19.4463C16.1367 19.6029 16.1563 19.74 16.1955 19.8967C16.2542 20.0534 16.313 20.1709 16.3522 20.2884C16.7047 20.9346 17.3117 21.7767 18.1734 22.795C19.0547 23.8134 19.9947 24.8513 21.013 25.8892C22.0705 26.9271 23.0888 27.8867 24.1267 28.7679C25.1451 29.6296 25.9872 30.2171 26.653 30.5696C26.7509 30.6088 26.8684 30.6675 27.0055 30.7263C27.1622 30.785 27.3188 30.8046 27.4951 30.8046C27.828 30.8046 28.0826 30.6871 28.298 30.4717L29.7863 29.0029C30.2759 28.5134 30.7459 28.1413 31.1963 27.9063C31.6467 27.6321 32.0972 27.495 32.5867 27.495C32.9588 27.495 33.3505 27.5734 33.7813 27.7496C34.2122 27.9259 34.6626 28.1804 35.1522 28.5134L41.6342 33.1154C42.1434 33.4679 42.4959 33.8792 42.7113 34.3688C42.9072 34.8584 43.0247 35.3479 43.0247 35.8963Z" stroke="#4588C0" stroke-width="1.5" stroke-miterlimit="10"/>
</svg>
